<svg xmlns="http://www.w3.org/2000/svg" width="512px" height="512px" viewBox="0 0 5120 5120" preserveAspectRatio="xMidYMid meet"><g fill="#082430"><path d="M2080 5094 c-224-30-427-83-638-166-132-52-132-52-186-218-30-91-67-225-83-299-28-133-28-133-183-280-346-326-577-612-691-856-165-354-158-826 19-1105 36-57 129-169 171-205 22-20 23-24 12-74-34-158 7-530 85-771 48-147 169-386 251-495 148-197 329-350 528-446 274-132 533-177 950-166 350 9 713 72 1020 177 248 85 430 191 629 369 122 108 168 160 258 291 121 177 193 330 267 570 55 180 81 327 88 493 6 137 6 137 38 157 43 27 79 75 130 174 23 45 67 128 98 186 84 159 92 193 92 405 0 137-4 194-17 240-27 100-58 172-94 225-19 27-34 54-34 60 0 6 12 28 26 49 25 39 25 39-1 102-94 223-260 497-412 676-59 70-97 104-153 139-102 62-230 173-301 260-59 73-119 116-291 212-58 32-58 32-58-6 0-129 113-322 273-467 62-56 62-56 7-29-126 61-313 215-371 305-18 27-36 49-42 49-24 0-249 226-307 309-42 60-42 60-148 85-58 14-107 24-109 23-4-4 42-170 62-227 8-24 27-64 41-87 14-24 23-47 20-52-10-16 84-133 186-234 182-178 366-306 693-478 61-32 107-59 103-59-18 0-164 58-263 104-361 171-637 378-857 644-15 17-33 32-41 32-32 0-192 254-227 359-13 41-13 41-128 41-115 0-115 0-109-62 7-74 63-245 106-324 41-76 10-47-40 37-50 84-97 195-119 279-16 65-16 65-81 67-35 1-111-5-169-13z m686-604 c52-50 52-50 25-69-28-20-28-20-79 32-29 29-52 58-52 64 0 10 16 18 44 22 5 0 33-21 62-49z m-1023-375 c208-36 417-128 571-249 61-48 154-165 185-231 16-33 36-91 45-130 64-283 50-379-76-512-106-112-111-127-119-383-4-118-11-229-17-245-15-49-48-109-71-129-33-30-26-44 27-50 48-7 125 9 174 35 57 30 197 157 257 231 35 44 81 93 104 109 113 82 284 75 351-14 55-74 12-441-73-623-32-69-104-153-164-190-129-83-254-59-519 98-210 124-319 159-435 138-73-12-166-55-199-91-27-30-47-89-69-203-25-135-60-238-92-268-36-34-113-59-155-51-45 8-105 39-155 79-94 77-256 313-282 411-9 33-9 49 2 75 33 78 81 81 226 14 132-61 231-86 338-86 71 0 83 2 83 17 0 24-30 53-54 53-37 1-135 47-190 89-64 50-288 300-368 413-32 43-75 112-97 151-53 96-155 336-201 472-37 110-37 110 39 167 108 80 240 158 268 158 12 0 23 3 23 8 0 8 48 32 65 32 7 0 54 23 106 51 91 50 214 104 292 129 36 11 37 13 37 61 0 49 0 49-53 49-60 0-141-29-317-112-63-31-142-63-175-73-65-18-147-64-263-144-74-51-74-51-67-9 19 110 112 304 211 438 64 87 183 200 257 244 149 89 322 111 550 71z m2307-412 c75-17 75-17 47-72-15-31-32-83-38-116-13-68-7-316 11-439 28-193 112-391 231-546 137-178 205-226 307-219 57 4 57-4 3-55-31-30-31-30-70-8-51 29-116 37-166 20-53-17-76-66-111-230-14-68-31-129-37-136-8-10-5-14 12-19 27-7 26-12-31-196-108-353-259-616-492-856-133-136-233-215-390-308-251-148-465-218-789-258-401-50-749 25-1046 223-111 74-279 242-363 362-134 194-240 416-288 605-30 119-68 380-57 392 13 13 35-21 61-96 53-154 176-322 383-521 134-129 292-248 423-319 168-90 396-138 601-127 342 19 899 160 1167 295 189 95 397 273 539 461 67 88 182 293 196 348 4 19 10 22 26 17 38-12 21 9-35 45-180 114-403 448-502 750-69 210-82 278-89 460-8 233 16 348 90 435 49 59 200 123 292 124 22 1 74-7 115-16z m420-358 c59-30 80-76 121-264 16-75 41-176 54-226 34-129 39-171 25-206-34-82-188-21-224 89-9 26-20 99-26 162-12 140-45 308-73 374-21 49-21 49 7 73 30 26 63 25 116-2z m-3916-206 c-30-210-37-484-15-624 16-101 76-323 107-394 13-29 24-55 24-57 0-11-125 74-147 100-117 139-145 525-62 856 22 86 108 314 116 307 2-3-8-87-23-188z m3078-1201 c9-82-10-260-35-333-55-161-119-248-240-329-111-74-157-93-290-121-160-33-284-38-467-21-234 23-374 62-652 180-21 9-36 22-33 29 2 6 18 56 35 110 32 98 32 98 54 79 22-21 241-144 361-205 162-81 338-127 486-127 222 0 366 84 519 302 58 82 199 348 226 426 10 28 22 52 25 52 4 0 9-19 11-42z"/><path d="M1250 2899 c0-27 160-279 178-279 26 0 10 46-52 143-34 56-68 112-75 125-12 22-51 31-51 11z"/><path d="M1636 2752 c-27-9-54-24-59-32-23-38 42-164 117-224 34-28 46-31 119-34 69-3 87 0 115 18 53 33 64 97 25 156-21 33-129 105-180 120-58 18-77 17-137-4z"/></g><g fill="#0f2a31"><path d="M2676 4544 c-22-8-41-16-43-18-3-2 26-36 62-75 67-71 67-71 101-45 19 15 34 30 34 34 0 6-111 122-114 119-1 0-19-7-40-15z"/><path d="M1665 3743 c-153-32-198-53-114-53 41 0 41 0 37-45-2-25-2-45-1-45 1 0 41 9 90 21 104 25 158 22 282-17 132-41 195-112 235-266 15-60 46-81 46-31 0 16 5 34 12 41 22 22 13 116-16 176-48 99-149 167-303 207-71 18-211 24-268 12z"/><path d="M1160 3419 c-48-12-70-21-70-31 0-5-5-6-12-2-8 5-9-5-5-37 17-121 161-465 191-453 9 3 19-3 27-18 6-13 41-69 76-126 42-66 62-109 59-120-4-12 6-33 30-60 40-47 64-54 64-19 0 27-56 159-125 297-101 200-186 424-203 528-7 44-9 47-32 41z"/><path d="M1276 2671 c-23-25-50-190-42-259 7-61 28-107 51-116 31-12 96-6 121 10 37 25 54 66 54 133 0 70-27 150-70 210-25 34-36 41-64 41-20 0-40-8-50-19z"/><path d="M2778 2190 c-127-85-198-110-312-110-75 0-74-20 1-55 96-44 133-49 199-30 82 24 146 58 181 98 35 39 103 149 103 166 0 29-62 5-172-69z"/><path d="M1170 1815 c0-59 124-150 219-162 54-6 91 9 140 57 42 42 40 60-4 60-66 0-238 31-283 50-59 26-72 25-72-5z"/></g><g fill="#1083ae"><path d="M2304 5093 c3-10 11-40 17-68 17-70 71-195 118-274 37-62 159-206 167-198 2 2-18 37-45 78-26 41-59 94-71 119-36 71-90 239-97 303-6 57-6 57-50 57-38 0-44-3-39-17z"/><path d="M3900 4630 c51-74 103-131 183-198 79-68 220-162 241-162 29 0-261 263-385 350-64 44-64 44-39 10z"/><path d="M3595 1963 c-15-43-63-146-106-229-169-323-300-458-495-508-161-42-399 1-619 111-136 69-340 186-367 211-15 14-30 24-32 21-6-6-76-227-76-239 0-5 17-17 38-26 281-119 418-157 657-180 189-18 320-12 482 21 133 28 179 47 290 121 121 81 185 168 240 329 30 89 46 276 31 372-5 38-11 69-13 71-1 1-15-32-30-75z"/></g><g fill="#31a0c7"><path d="M3410 4906 c0-7 12-62 26-122 14-60 27-117 28-126 8-59 134-193 276-293 76-53 238-140 247-132 2 3-35 40-83 83-181 165-294 349-294 481 0 18-2 33-4 33-2 0-47 20-100 45-65 30-96 40-96 31z"/></g><g fill="#c66a6b"><path d="M3875 3720 c-4-6 10-10 35-10 42 0 42 0 17-30-58-68-103-205-114-341-7-87 10-272 37-406 34-172 136-409 250-582 64-98 164-211 186-211 7 0 20 21 30 46 22 58 53 78 118 78 39 0 64-7 100-28 48-28 48-28 72-5 13 12 24 31 24 41 0 18-6 22-109 64-88 37-251 233-331 399-85 176-116 316-127 570-6 164 4 233 48 323 17 35 29 64 27 66-1 1-37 10-78 19-83 19-175 22-185 7z"/><path d="M504 2976 c-65-74-85-116-95-203-13-104-5-303 17-412 18-89 61-186 101-222 29-27 165-111 170-105 2 1-12 36-31 77-39 85-99 297-117 414-7 45-13 163-12 273 0 192-3 212-33 178z"/></g><g fill="#b77376"><path d="M573 3352 c-36-64-93-213-119-312-23-87-43-236-28-200 9 21 58 90 83 119 18 21 21 22 21 6 0-10 2-16 5-13 7 7 67 429 62 434-2 2-13-13-24-34z"/></g><g fill="#c4908d"><path d="M4495 2336 c11-9 35-21 55-26 20-5 44-16 55-24 20-14 19-15-9-45-17-17-25-31-19-31 10 0 125 121 120 126-1 1-26-3-55-9-50-11-78-7-147 17-20 8-20 8 0-8z"/></g><g fill="#f6bb68"><path d="M3800 3705 c-76-24-152-76-188-129-58-87-67-136-67-366 0-232 6-271 82-505 103-319 314-636 512-769 71-47 98-56 106-33 3 6 16 63 29 125 24 113 24 113-31 165-149 140-334 503-383 750-27 133-44 319-36 398 13 146 70 294 133 349 34 30 34 30-39 29-40 0-93-7-118-14z"/></g><g fill="#5ecfee"><path d="M3086 4504 c-26-26-19-39 52-102 203-180 555-381 817-467 55-19 117-41 139-50 79-34 44-4-64 52-395 207-571 321-766 500-79 71-97 83-127 83-20 0-43-7-51-16z"/><path d="M2170 2171 c-85-59-131-71-247-64-98 6-98 6-119-39-34-70-70-105-124-123-28-9-50-20-50-24 0-4 9-16 20-26 12-10 18-25 15-32-8-24 110-15 132 10 28 31 124 75 190 86 47 9 73 8 121-3 60-14 60-14 82 47 16 44 38 76 81 121 32 33 59 61 59 62 0 2-99 25-103 23-1 0-27-17-57-38z"/></g><g fill="#90e6fb"><path d="M3010 4607 c-19-7-36-19-38-28-1-8 21-39 49-68 47-46 54-50 63-34 5 10 14 21 20 25 17 12 61 9 74-4 6-6 14-10 16-7 3 2-21 33-53 67-60 65-72 69-131 49z"/></g><g fill="#e5dfcb"><path d="M751 3495 c-7-16-19-55-27-85-23-90-16-134 16-96 6 8 34 29 61 47 49 31 49 31 17 60-18 16-36 29-40 29-4 0-8 17-10 38-4 37-4 37-17 7z"/></g><g fill="#fae9c7"><path d="M1441 4140 c-165-23-279-81-406-207-131-129-275-364-275-446 0-35 5-45 30-62 16-11 30-23 30-27 0-16 23-7 103 41 45 27 109 57 142 67 33 9 112 41 175 72 316 150 501 189 683 143 154-40 255-108 302-206 29-58 37-137 17-157-7-7-12-26-12-42 0-40-13-22-28 38-38 148-102 220-233 261-126 39-204 42-321 11-121-31-255-84-375-148-87-46-93-52-93-81 0-76 76-290 177-497 88-182 153-330 153-348 0-51-162 182-263 378-76 146-128 275-153 380-10 41-19 76-20 78-6 11-188-100-289-176-33-25-62-47-64-48-8-6 78-242 144-394 111-258 167-344 379-584 142-160 207-216 293-252 71-29 75-29 143-3 68 26 91 47 127 116 28 55 28 55 124 49 114-8 161 5 254 67 82 54 103 75 127 122 36 70 40 96 47 315 8 255 14 273 115 379 101 104 131 190 115 333-12 104-36 219-60 288-69 197-303 387-591 479-174 55-367 79-497 61z m322-1394 c26-8 75-34 109-59 106-75 123-149 46-198-27-16-46-19-105-17-62 3-76 7-109 34-74 60-138 180-112 211 10 12 87 41 114 42 6 1 32-5 57-13z m-383-107 c107-149 86-339-39-339-60 0-83 27-96 110-9 60 18 226 41 251 28 31 60 24 94-22z"/><path d="M4339 3350 c-30-29-30-29-8-71 28-56 67-242 79-386 12-137 30-200 68-236 54-52 153-74 186-41 35 34 33 92-9 249-13 50-38 152-54 228-44 201-67 244-148 273-58 20-82 17-114-16z"/><path d="M2893 2612 c-70-25-112-59-185-151-66-83-206-205-266-233-20-10-57-22-81-28-77-20-173-131-196-230-5-23-1-27 52-47 32-13 112-55 178-94 227-135 346-173 455-145 33 9 77 26 97 39 60 38 132 122 164 191 86 184 129 567 73 643-36 47-79 66-163 70-56 3-90-1-128-15z m26-389 c-85-142-128-178-258-217-62-18-92-13-188 32-58 27-58 27 22 33 122 9 178 30 300 113 61 41 118 75 128 75 17 1 17-2-4-36z"/><path d="M1070 1988 c-14-7-34-31-44-52-17-34-17-45-7-89 23-101 184-340 284-421 54-43 111-72 163-80 50-9 128 16 167 52 32 31 65 127 96 283 11 58 28 122 36 142 8 20 15 38 15 39 0 2-56 1-124 0-150-5-232 13-385 83-113 52-163 62-201 43z m162-178 c45-20 217-50 284-50 34 0 35-1 20-22-9-12-35-35-58-51-36-24-50-28-85-23-24 3-65 17-91 30-51 26-122 96-122 121 0 19-1 19 52-5z"/></g><g fill="#bff2fb"><path d="M2964 4701 c-45-11-54-19-54-50 0-34 64-102 73-77 8 20 75 38 98 26 32-18 31-11-7 43-53 72-52 72-110 58z"/></g><g fill="#e7f9fb"><path d="M2859 4693 c5-10 21-29 35-42 26-24 26-24 26-3 0 26 28 42 75 44 19 1 32 5 29 10-3 4-43 8-90 8-78 0-84-1-75-17z"/></g></svg>