<svg xmlns="http://www.w3.org/2000/svg" width="1024" height="1024" class="img-fluid" style="transform:none;transform-origin:50% 50%0;cursor:move;max-height:473.14px;transition:none 0s ease 0s" viewBox="0 0 10240 10240">
  <path fill="#0274B3" d="M649 10194c-249-45-471-222-564-452-59-145-55 171-53-4667C35 865 36 642 53 585c26-89 89-212 141-278 90-111 236-205 390-249l81-23h4445c4274 0 4448 1 4523 18 152 36 321 140 413 255 52 65 115 188 141 277 17 57 18 280 21 4490 2 4845 6 4525-54 4667-91 217-281 381-517 445-58 17-337 18-4487 19-3737 2-4437 0-4501-12zm2381-3918V3862l-442-4c-244-2-577-2-740 0l-298 4v4828h1480V6276zm2460 1105c0-806 4-1347 10-1407 56-549 273-839 683-913 100-18 258-23 362-12 248 26 420 141 524 349 74 149 93 228 121 499 20 189 21 259 20 1496v1297h1490V7263c-1-1598-3-1705-56-2058-110-726-442-1169-1022-1364-176-59-343-86-602-97-347-15-635 41-905 177-159 80-288 172-410 294-88 88-225 268-225 296 0 5-11 9-25 9h-25v-660l-257-2c-284-2-1156 2-1160 6-3 2-6 3615-4 4379l1 447h1480V7381zM2525 3140c155-49 284-130 395-246 88-92 140-173 186-290 43-111 54-169 55-294 3-390-273-742-660-841-291-74-578 3-798 214-137 132-221 282-257 459-38 184-2 409 90 577 124 226 327 375 594 437 88 21 308 12 395-16z" style="transform:none"/>
  <g fill="#FEFEFF" style="transform:none">
    <path d="M1540 6276V3852l303-4c166-1 503-1 749 0l448 4v4848H1540V6276zM3999 8253c-2-725 1-4397 4-4399 4-4 903-9 1180-6l257 2v330c0 287 2 330 15 330 8 0 15-4 15-9 0-28 137-208 225-296 259-259 600-419 990-464 112-13 467-6 607 13 143 19 218 36 340 77 689 231 1013 783 1068 1824 5 94 10 817 10 1608v1437H7200V7403c0-1236 0-1308-20-1496-28-271-47-350-121-499-104-208-276-323-524-349-213-23-447 15-591 96-255 143-390 399-434 825-6 57-10 618-10 1408v1312H4000l-1-447zM2120 3166c-267-62-470-211-594-437-93-170-129-407-90-597 36-177 120-327 257-459 180-172 392-253 632-240 232 13 411 89 576 245 179 168 272 386 271 631-1 135-12 192-56 305-46 117-98 198-186 290-111 116-240 196-395 246-87 28-325 37-415 16z"/>
  </g>
</svg>
